<svg id="SvgjsSvg1006" width="5000px" height="3053.3337990290242px" xmlns="http://www.w3.org/2000/svg" version="1.1" xmlns:xlink="http://www.w3.org/1999/xlink" xmlns:svgjs="http://svgjs.com/svgjs" viewBox="0 0 447.359375 273.1875"><defs id="SvgjsDefs1007"></defs><g id="SvgjsG1009" transform="rotate(0 223.171875 82.1796875)"><svg width="349" viewBox="0 0 83.55400085449219 39.35099792480469" xmlns="http://www.w3.org/2000/svg" version="1.1" xmlns:xlink="http://www.w3.org/1999/xlink" xmlns:svgjs="http://svgjs.com/svgjs" preserveAspectRatio="none" height="164.359375" x="48.671875" y="0"><g><svg data-color="1" xmlns="http://www.w3.org/2000/svg" xmlns:xlink="http://www.w3.org/1999/xlink" version="1.1" x="0px" y="0px" viewBox="3.005000352859497 24.5939998626709 83.55400085449219 39.35099792480469" enable-background="new 0 0 90 90" xml:space="preserve" width="83.55400085449219" height="39.35099792480469" fill="#1754c2"><g><polygon points="41.031,32.583 40.662,32.256 44.494,27.944 72.611,27.944 72.611,28.439 44.716,28.439  "></polygon></g><circle cx="6.602" cy="54.198" r="3.597"></circle><circle cx="60.471" cy="33.838" r="3.598"></circle><circle cx="72.61" cy="28.192" r="3.598"></circle><circle cx="82.961" cy="46.856" r="3.598"></circle><circle cx="40.846" cy="32.419" r="3.597"></circle><g><polygon points="51.381,51.248 51.012,50.92 54.844,46.608 82.961,46.608 82.961,47.104 55.065,47.104  "></polygon></g><circle cx="51.196" cy="51.084" r="3.598"></circle><g><polygon points="28.314,54.444 6.602,54.444 6.602,53.951 28.11,53.951 48.472,33.591 57.44,33.591 57.44,34.085 48.676,34.085     "></polygon></g><circle cx="18.053" cy="60.347" r="3.598"></circle><g><polygon points="31.253,60.594 18.053,60.594 18.053,60.1 31.049,60.1 51.408,39.741 74.563,39.741 74.563,40.235 51.612,40.235     "></polygon></g></svg></g><defs id="SvgjsDefs1008"></defs></svg></g><g id="SvgjsG1011" transform="rotate(0 222.671875 212.9609375)"><svg xmlns="http://www.w3.org/2000/svg" xmlns:xlink="http://www.w3.org/1999/xlink" width="134.625" viewBox="3.390000104904175 16.209999084472656 134.63999938964844 39.220001220703125" overflow="visible" style="overflow: visible;" transform="" version="1.1" xmlns:svgjs="http://svgjs.com/svgjs" preserveAspectRatio="none" height="39.203125" x="155.359375" y="193.359375" fill="#000000" stroke="none"><path stroke="none" fill="#000000" d="M42.60 19.80L42.60 55.43L35.49 55.43L35.49 45.80L10.50 45.80L10.50 55.43L3.39 55.43L3.39 35.82L3.39 35.82Q3.39 31.53 4.87 27.92L4.87 27.92L4.87 27.92Q6.34 24.31 8.97 21.71L8.97 21.71L8.97 21.71Q11.59 19.11 15.18 17.66L15.18 17.66L15.18 17.66Q18.76 16.21 23.00 16.21L23.00 16.21L39.02 16.21L39.02 16.21Q39.76 16.21 40.41 16.49L40.41 16.49L40.41 16.49Q41.07 16.76 41.56 17.25L41.56 17.25L41.56 17.25Q42.05 17.75 42.33 18.40L42.33 18.40L42.33 18.40Q42.60 19.06 42.60 19.80L42.60 19.80ZM10.50 35.82L10.50 38.69L35.49 38.69L35.49 23.32L23.00 23.32L23.00 23.32Q22.67 23.32 21.62 23.42L21.62 23.42L21.62 23.42Q20.56 23.52 19.18 23.90L19.18 23.90L19.18 23.90Q17.80 24.28 16.27 25.07L16.27 25.07L16.27 25.07Q14.74 25.87 13.45 27.26L13.45 27.26L13.45 27.26Q12.17 28.66 11.33 30.75L11.33 30.75L11.33 30.75Q10.50 32.84 10.50 35.82L10.50 35.82ZM56 51.84L56 51.84L56 51.84Q56 52.58 55.71 53.22L55.71 53.22L55.71 53.22Q55.43 53.87 54.95 54.35L54.95 54.35L54.95 54.35Q54.47 54.82 53.83 55.10L53.83 55.10L53.83 55.10Q53.18 55.37 52.47 55.37L52.47 55.37L52.47 55.37Q51.73 55.37 51.09 55.10L51.09 55.10L51.09 55.10Q50.45 54.82 49.97 54.35L49.97 54.35L49.97 54.35Q49.49 53.87 49.22 53.22L49.22 53.22L49.22 53.22Q48.95 52.58 48.95 51.84L48.95 51.84L48.95 51.84Q48.95 51.13 49.22 50.49L49.22 50.49L49.22 50.49Q49.49 49.85 49.97 49.37L49.97 49.37L49.97 49.37Q50.45 48.89 51.09 48.60L51.09 48.60L51.09 48.60Q51.73 48.32 52.47 48.32L52.47 48.32L52.47 48.32Q53.18 48.32 53.83 48.60L53.83 48.60L53.83 48.60Q54.47 48.89 54.95 49.37L54.95 49.37L54.95 49.37Q55.43 49.85 55.71 50.49L55.71 50.49L55.71 50.49Q56 51.13 56 51.84ZM100.02 43.89L100.02 43.89L100.02 43.89Q100.02 45.99 99.49 47.67L99.49 47.67L99.49 47.67Q98.96 49.36 98.08 50.64L98.08 50.64L98.08 50.64Q97.21 51.93 96.03 52.83L96.03 52.83L96.03 52.83Q94.86 53.73 93.60 54.30L93.60 54.30L93.60 54.30Q92.34 54.88 91.04 55.15L91.04 55.15L91.04 55.15Q89.74 55.43 88.59 55.43L88.59 55.43L61.17 55.43L61.17 48.32L88.59 48.32L88.59 48.32Q90.64 48.32 91.78 47.11L91.78 47.11L91.78 47.11Q92.91 45.91 92.91 43.89L92.91 43.89L92.91 43.89Q92.91 42.90 92.61 42.08L92.61 42.08L92.61 42.08Q92.31 41.26 91.75 40.66L91.75 40.66L91.75 40.66Q91.19 40.06 90.38 39.73L90.38 39.73L90.38 39.73Q89.58 39.40 88.59 39.40L88.59 39.40L72.24 39.40L72.24 39.40Q70.52 39.40 68.52 38.79L68.52 38.79L68.52 38.79Q66.53 38.17 64.82 36.80L64.82 36.80L64.82 36.80Q63.11 35.44 61.97 33.22L61.97 33.22L61.97 33.22Q60.84 31.01 60.84 27.81L60.84 27.81L60.84 27.81Q60.84 24.61 61.97 22.41L61.97 22.41L61.97 22.41Q63.11 20.21 64.82 18.83L64.82 18.83L64.82 18.83Q66.53 17.45 68.52 16.83L68.52 16.83L68.52 16.83Q70.52 16.21 72.24 16.21L72.24 16.21L96.44 16.21L96.44 23.32L72.24 23.32L72.24 23.32Q70.22 23.32 69.08 24.55L69.08 24.55L69.08 24.55Q67.95 25.79 67.95 27.81L67.95 27.81L67.95 27.81Q67.95 29.86 69.08 31.05L69.08 31.05L69.08 31.05Q70.22 32.24 72.24 32.24L72.24 32.24L88.59 32.24L88.65 32.24L88.65 32.24Q89.80 32.27 91.08 32.55L91.08 32.55L91.08 32.55Q92.37 32.84 93.64 33.44L93.64 33.44L93.64 33.44Q94.91 34.04 96.06 34.96L96.06 34.96L96.06 34.96Q97.21 35.88 98.10 37.16L98.10 37.16L98.10 37.16Q98.98 38.45 99.50 40.11L99.50 40.11L99.50 40.11Q100.02 41.78 100.02 43.89ZM111.07 51.84L111.07 51.84L111.07 51.84Q111.07 52.58 110.78 53.22L110.78 53.22L110.78 53.22Q110.50 53.87 110.02 54.35L110.02 54.35L110.02 54.35Q109.54 54.82 108.90 55.10L108.90 55.10L108.90 55.10Q108.25 55.37 107.54 55.37L107.54 55.37L107.54 55.37Q106.80 55.37 106.16 55.10L106.16 55.10L106.16 55.10Q105.52 54.82 105.04 54.35L105.04 54.35L105.04 54.35Q104.56 53.87 104.29 53.22L104.29 53.22L104.29 53.22Q104.02 52.58 104.02 51.84L104.02 51.84L104.02 51.84Q104.02 51.13 104.29 50.49L104.29 50.49L104.29 50.49Q104.56 49.85 105.04 49.37L105.04 49.37L105.04 49.37Q105.52 48.89 106.16 48.60L106.16 48.60L106.16 48.60Q106.80 48.32 107.54 48.32L107.54 48.32L107.54 48.32Q108.25 48.32 108.90 48.60L108.90 48.60L108.90 48.60Q109.54 48.89 110.02 49.37L110.02 49.37L110.02 49.37Q110.50 49.85 110.78 50.49L110.78 50.49L110.78 50.49Q111.07 51.13 111.07 51.84ZM124.58 16.21L124.58 55.43L117.47 55.43L117.47 16.21L124.58 16.21ZM138.03 51.84L138.03 51.84L138.03 51.84Q138.03 52.58 137.74 53.22L137.74 53.22L137.74 53.22Q137.46 53.87 136.98 54.35L136.98 54.35L136.98 54.35Q136.50 54.82 135.86 55.10L135.86 55.10L135.86 55.10Q135.21 55.37 134.50 55.37L134.50 55.37L134.50 55.37Q133.77 55.37 133.12 55.10L133.12 55.10L133.12 55.10Q132.48 54.82 132.00 54.35L132.00 54.35L132.00 54.35Q131.52 53.87 131.25 53.22L131.25 53.22L131.25 53.22Q130.98 52.58 130.98 51.84L130.98 51.84L130.98 51.84Q130.98 51.13 131.25 50.49L131.25 50.49L131.25 50.49Q131.52 49.85 132.00 49.37L132.00 49.37L132.00 49.37Q132.48 48.89 133.12 48.60L133.12 48.60L133.12 48.60Q133.77 48.32 134.50 48.32L134.50 48.32L134.50 48.32Q135.21 48.32 135.86 48.60L135.86 48.60L135.86 48.60Q136.50 48.89 136.98 49.37L136.98 49.37L136.98 49.37Q137.46 49.85 137.74 50.49L137.74 50.49L137.74 50.49Q138.03 51.13 138.03 51.84Z" transform="rotate(0 70.7099997997284 35.81999969482422)"></path><defs id="SvgjsDefs1010"></defs></svg></g><g id="SvgjsG1013" transform="rotate(0 223.6796875 263.375)"><svg xmlns="http://www.w3.org/2000/svg" xmlns:xlink="http://www.w3.org/1999/xlink" width="447.359375" viewBox="1.090000033378601 4.190000057220459 447.3600158691406 13.629999160766602" overflow="visible" style="overflow: visible;" transform="" version="1.1" xmlns:svgjs="http://svgjs.com/svgjs" preserveAspectRatio="none" height="13.625" x="0" y="256.5625" fill="#000000" stroke="none"><path stroke="none" fill="#000000" d="M13.69 6.36L13.69 17.82L11.41 17.82L11.41 14.72L3.38 14.72L3.38 17.82L1.09 17.82L1.09 11.51L1.09 11.51Q1.09 10.13 1.56 8.97L1.56 8.97L1.56 8.97Q2.04 7.81 2.88 6.98L2.88 6.98L2.88 6.98Q3.73 6.14 4.88 5.68L4.88 5.68L4.88 5.68Q6.03 5.21 7.39 5.21L7.39 5.21L12.54 5.21L12.54 5.21Q12.78 5.21 12.99 5.30L12.99 5.30L12.99 5.30Q13.20 5.39 13.36 5.55L13.36 5.55L13.36 5.55Q13.52 5.70 13.61 5.92L13.61 5.92L13.61 5.92Q13.69 6.13 13.69 6.36L13.69 6.36ZM3.38 11.51L3.38 12.44L11.41 12.44L11.41 7.50L7.39 7.50L7.39 7.50Q7.29 7.50 6.95 7.53L6.95 7.53L6.95 7.53Q6.61 7.56 6.17 7.68L6.17 7.68L6.17 7.68Q5.72 7.80 5.23 8.06L5.23 8.06L5.23 8.06Q4.74 8.31 4.32 8.76L4.32 8.76L4.32 8.76Q3.91 9.21 3.64 9.88L3.64 9.88L3.64 9.88Q3.38 10.56 3.38 11.51L3.38 11.51ZM27.28 14.61L27.28 14.61L27.28 14.61Q27.28 15.20 27.13 15.67L27.13 15.67L27.13 15.67Q26.98 16.14 26.73 16.49L26.73 16.49L26.73 16.49Q26.49 16.85 26.16 17.10L26.16 17.10L26.16 17.10Q25.84 17.35 25.48 17.51L25.48 17.51L25.48 17.51Q25.12 17.67 24.76 17.74L24.76 17.74L24.76 17.74Q24.39 17.82 24.07 17.82L24.07 17.82L17.88 17.82L17.88 15.53L24.05 15.53L24.05 15.53Q24.52 15.53 24.75 15.29L24.75 15.29L24.75 15.29Q24.99 15.06 24.99 14.61L24.99 14.61L24.99 14.61Q24.95 13.69 24.07 13.69L24.07 13.69L20.53 13.69L20.53 13.69Q19.77 13.69 19.24 13.43L19.24 13.43L19.24 13.43Q18.72 13.17 18.39 12.77L18.39 12.77L18.39 12.77Q18.06 12.38 17.91 11.92L17.91 11.92L17.91 11.92Q17.77 11.46 17.77 11.07L17.77 11.07L17.77 11.07Q17.77 10.30 18.04 9.78L18.04 9.78L18.04 9.78Q18.31 9.25 18.73 8.93L18.73 8.93L18.73 8.93Q19.14 8.60 19.62 8.46L19.62 8.46L19.62 8.46Q20.11 8.31 20.53 8.31L20.53 8.31L26.14 8.31L26.14 10.60L20.54 10.60L20.54 10.60Q20.37 10.60 20.27 10.64L20.27 10.64L20.27 10.64Q20.17 10.68 20.12 10.74L20.12 10.74L20.12 10.74Q20.07 10.81 20.06 10.89L20.06 10.89L20.06 10.89Q20.05 10.96 20.05 11.03L20.05 11.03L20.05 11.03Q20.06 11.17 20.11 11.25L20.11 11.25L20.11 11.25Q20.15 11.33 20.22 11.36L20.22 11.36L20.22 11.36Q20.28 11.40 20.36 11.40L20.36 11.40L20.36 11.40Q20.45 11.41 20.53 11.41L20.53 11.41L24.07 11.41L24.07 11.41Q24.95 11.41 25.56 11.72L25.56 11.72L25.56 11.72Q26.18 12.04 26.56 12.52L26.56 12.52L26.56 12.52Q26.93 13.00 27.11 13.56L27.11 13.56L27.11 13.56Q27.28 14.12 27.28 14.61ZM33.20 4.30L33.20 6.36L30.91 6.36L30.91 4.30L33.20 4.30ZM33.20 8.31L33.20 17.82L30.91 17.82L30.91 8.31L33.20 8.31ZM46.57 14.61L46.57 14.61L46.57 14.61Q46.57 15.20 46.42 15.67L46.42 15.67L46.42 15.67Q46.27 16.14 46.03 16.49L46.03 16.49L46.03 16.49Q45.78 16.85 45.45 17.10L45.45 17.10L45.45 17.10Q45.13 17.35 44.77 17.51L44.77 17.51L44.77 17.51Q44.42 17.67 44.05 17.74L44.05 17.74L44.05 17.74Q43.69 17.82 43.36 17.82L43.36 17.82L37.17 17.82L37.17 15.53L43.34 15.53L43.34 15.53Q43.81 15.53 44.05 15.29L44.05 15.29L44.05 15.29Q44.29 15.06 44.29 14.61L44.29 14.61L44.29 14.61Q44.24 13.69 43.36 13.69L43.36 13.69L39.82 13.69L39.82 13.69Q39.06 13.69 38.54 13.43L38.54 13.43L38.54 13.43Q38.01 13.17 37.68 12.77L37.68 12.77L37.68 12.77Q37.35 12.38 37.21 11.92L37.21 11.92L37.21 11.92Q37.06 11.46 37.06 11.07L37.06 11.07L37.06 11.07Q37.06 10.30 37.33 9.78L37.33 9.78L37.33 9.78Q37.61 9.25 38.02 8.93L38.02 8.93L38.02 8.93Q38.43 8.60 38.92 8.46L38.92 8.46L38.92 8.46Q39.40 8.31 39.82 8.31L39.82 8.31L45.44 8.31L45.44 10.60L39.84 10.60L39.84 10.60Q39.66 10.60 39.56 10.64L39.56 10.64L39.56 10.64Q39.46 10.68 39.41 10.74L39.41 10.74L39.41 10.74Q39.36 10.81 39.35 10.89L39.35 10.89L39.35 10.89Q39.35 10.96 39.35 11.03L39.35 11.03L39.35 11.03Q39.35 11.17 39.40 11.25L39.40 11.25L39.40 11.25Q39.44 11.33 39.51 11.36L39.51 11.36L39.51 11.36Q39.57 11.40 39.66 11.40L39.66 11.40L39.66 11.40Q39.74 11.41 39.82 11.41L39.82 11.41L43.36 11.41L43.36 11.41Q44.24 11.41 44.86 11.72L44.86 11.72L44.86 11.72Q45.47 12.04 45.85 12.52L45.85 12.52L45.85 12.52Q46.23 13.00 46.40 13.56L46.40 13.56L46.40 13.56Q46.57 14.12 46.57 14.61ZM58.65 8.31L58.65 10.60L54.66 10.60L54.66 17.82L52.35 17.82L52.35 10.60L49.38 10.60L49.38 8.31L52.35 8.31L52.35 5.21L54.66 5.21L54.66 8.31L58.65 8.31ZM72.34 11.46L72.34 11.46L72.34 11.46Q72.34 11.94 72.17 12.48L72.17 12.48L72.17 12.48Q72.01 13.03 71.63 13.50L71.63 13.50L71.63 13.50Q71.26 13.97 70.66 14.29L70.66 14.29L70.66 14.29Q70.06 14.61 69.19 14.61L69.19 14.61L65.07 14.61L65.07 12.44L69.19 12.44L69.19 12.44Q69.66 12.44 69.92 12.15L69.92 12.15L69.92 12.15Q70.17 11.87 70.17 11.44L70.17 11.44L70.17 11.44Q70.17 11.00 69.88 10.74L69.88 10.74L69.88 10.74Q69.60 10.49 69.19 10.49L69.19 10.49L65.07 10.49L65.07 10.49Q64.61 10.49 64.35 10.77L64.35 10.77L64.35 10.77Q64.10 11.06 64.10 11.48L64.10 11.48L64.10 14.67L64.10 14.67Q64.10 15.13 64.38 15.38L64.38 15.38L64.38 15.38Q64.67 15.64 65.09 15.64L65.09 15.64L69.19 15.64L69.19 17.82L65.07 17.82L65.07 17.82Q64.60 17.82 64.05 17.65L64.05 17.65L64.05 17.65Q63.50 17.48 63.03 17.11L63.03 17.11L63.03 17.11Q62.56 16.73 62.24 16.13L62.24 16.13L62.24 16.13Q61.93 15.53 61.93 14.67L61.93 14.67L61.93 11.46L61.93 11.46Q61.93 10.99 62.09 10.44L62.09 10.44L62.09 10.44Q62.26 9.89 62.63 9.42L62.63 9.42L62.63 9.42Q63.01 8.95 63.61 8.63L63.61 8.63L63.61 8.63Q64.21 8.31 65.07 8.31L65.07 8.31L69.19 8.31L69.19 8.31Q69.67 8.31 70.22 8.48L70.22 8.48L70.22 8.48Q70.77 8.65 71.24 9.02L71.24 9.02L71.24 9.02Q71.71 9.40 72.02 10.00L72.02 10.00L72.02 10.00Q72.34 10.60 72.34 11.46ZM86.41 12.54L86.41 17.82L84.12 17.82L84.12 12.54L84.12 12.54Q84.12 12.09 83.97 11.74L83.97 11.74L83.97 11.74Q83.82 11.38 83.55 11.13L83.55 11.13L83.55 11.13Q83.29 10.87 82.93 10.74L82.93 10.74L82.93 10.74Q82.58 10.60 82.16 10.60L82.16 10.60L78.16 10.60L78.16 17.82L75.88 17.82L75.88 9.45L75.88 9.45Q75.88 9.21 75.97 9.00L75.97 9.00L75.97 9.00Q76.05 8.80 76.21 8.64L76.21 8.64L76.21 8.64Q76.37 8.49 76.58 8.40L76.58 8.40L76.58 8.40Q76.79 8.31 77.03 8.31L77.03 8.31L82.18 8.31L82.18 8.31Q82.61 8.31 83.09 8.41L83.09 8.41L83.09 8.41Q83.57 8.51 84.04 8.72L84.04 8.72L84.04 8.72Q84.51 8.94 84.94 9.27L84.94 9.27L84.94 9.27Q85.36 9.60 85.69 10.07L85.69 10.07L85.69 10.07Q86.02 10.54 86.21 11.15L86.21 11.15L86.21 11.15Q86.41 11.77 86.41 12.54L86.41 12.54ZM99.61 15.53L99.61 17.82L93.42 17.82L93.42 17.82Q92.94 17.82 92.38 17.65L92.38 17.65L92.38 17.65Q91.82 17.48 91.34 17.10L91.34 17.10L91.34 17.10Q90.86 16.72 90.54 16.11L90.54 16.11L90.54 16.11Q90.22 15.50 90.22 14.61L90.22 14.61L90.22 11.51L90.22 11.51Q90.22 11.19 90.29 10.83L90.29 10.83L90.29 10.83Q90.37 10.47 90.53 10.11L90.53 10.11L90.53 10.11Q90.68 9.76 90.94 9.43L90.94 9.43L90.94 9.43Q91.19 9.11 91.54 8.86L91.54 8.86L91.54 8.86Q91.90 8.61 92.36 8.46L92.36 8.46L92.36 8.46Q92.83 8.31 93.42 8.31L93.42 8.31L99.61 8.31L99.61 10.60L93.42 10.60L93.42 10.60Q92.97 10.60 92.74 10.83L92.74 10.83L92.74 10.83Q92.50 11.06 92.50 11.53L92.50 11.53L92.50 14.61L92.50 14.61Q92.50 15.06 92.74 15.29L92.74 15.29L92.74 15.29Q92.98 15.53 93.44 15.53L93.44 15.53L99.61 15.53ZM105.82 4.30L105.82 6.36L103.54 6.36L103.54 4.30L105.82 4.30ZM105.82 8.31L105.82 17.82L103.54 17.82L103.54 8.31L105.82 8.31ZM119.82 11.46L119.82 14.67L119.82 14.67Q119.82 15.14 119.65 15.69L119.65 15.69L119.65 15.69Q119.49 16.24 119.11 16.71L119.11 16.71L119.11 16.71Q118.74 17.18 118.14 17.50L118.14 17.50L118.14 17.50Q117.54 17.82 116.67 17.82L116.67 17.82L112.55 17.82L112.55 17.82Q112.08 17.82 111.53 17.65L111.53 17.65L111.53 17.65Q110.98 17.48 110.51 17.11L110.51 17.11L110.51 17.11Q110.04 16.73 109.72 16.13L109.72 16.13L109.72 16.13Q109.41 15.53 109.41 14.67L109.41 14.67L109.41 14.67Q109.41 14.19 109.57 13.64L109.57 13.64L109.57 13.64Q109.74 13.09 110.11 12.62L110.11 12.62L110.11 12.62Q110.49 12.15 111.09 11.83L111.09 11.83L111.09 11.83Q111.69 11.51 112.55 11.51L112.55 11.51L116.67 11.51L116.67 13.69L112.55 13.69L112.55 13.69Q112.09 13.69 111.83 13.98L111.83 13.98L111.83 13.98Q111.58 14.26 111.58 14.69L111.58 14.69L111.58 14.69Q111.58 15.13 111.87 15.39L111.87 15.39L111.87 15.39Q112.17 15.64 112.57 15.64L112.57 15.64L116.67 15.64L116.67 15.64Q117.14 15.64 117.40 15.35L117.40 15.35L117.40 15.35Q117.65 15.07 117.65 14.65L117.65 14.65L117.65 11.46L117.65 11.46Q117.65 11.01 117.37 10.75L117.37 10.75L117.37 10.75Q117.10 10.49 116.67 10.49L116.67 10.49L111.66 10.49L111.66 8.31L116.67 8.31L116.67 8.31Q117.15 8.31 117.70 8.48L117.70 8.48L117.70 8.48Q118.25 8.65 118.72 9.02L118.72 9.02L118.72 9.02Q119.19 9.40 119.50 10.00L119.50 10.00L119.50 10.00Q119.82 10.60 119.82 11.46L119.82 11.46ZM141.85 11.46L141.85 11.46L141.85 11.46Q141.85 11.94 141.68 12.48L141.68 12.48L141.68 12.48Q141.51 13.03 141.14 13.50L141.14 13.50L141.14 13.50Q140.77 13.97 140.16 14.29L140.16 14.29L140.16 14.29Q139.56 14.61 138.70 14.61L138.70 14.61L134.58 14.61L134.58 12.44L138.70 12.44L138.70 12.44Q139.17 12.44 139.42 12.15L139.42 12.15L139.42 12.15Q139.68 11.87 139.68 11.44L139.68 11.44L139.68 11.44Q139.68 11.00 139.39 10.74L139.39 10.74L139.39 10.74Q139.11 10.49 138.70 10.49L138.70 10.49L134.58 10.49L134.58 10.49Q134.11 10.49 133.86 10.77L133.86 10.77L133.86 10.77Q133.60 11.06 133.60 11.48L133.60 11.48L133.60 14.67L133.60 14.67Q133.60 15.13 133.89 15.38L133.89 15.38L133.89 15.38Q134.17 15.64 134.60 15.64L134.60 15.64L138.70 15.64L138.70 17.82L134.58 17.82L134.58 17.82Q134.10 17.82 133.56 17.65L133.56 17.65L133.56 17.65Q133.01 17.48 132.54 17.11L132.54 17.11L132.54 17.11Q132.07 16.73 131.75 16.13L131.75 16.13L131.75 16.13Q131.43 15.53 131.43 14.67L131.43 14.67L131.43 11.46L131.43 11.46Q131.43 10.99 131.60 10.44L131.60 10.44L131.60 10.44Q131.77 9.89 132.14 9.42L132.14 9.42L132.14 9.42Q132.51 8.95 133.12 8.63L133.12 8.63L133.12 8.63Q133.72 8.31 134.58 8.31L134.58 8.31L138.70 8.31L138.70 8.31Q139.18 8.31 139.73 8.48L139.73 8.48L139.73 8.48Q140.27 8.65 140.74 9.02L140.74 9.02L140.74 9.02Q141.21 9.40 141.53 10.00L141.53 10.00L141.53 10.00Q141.85 10.60 141.85 11.46ZM155.92 12.54L155.92 17.82L153.63 17.82L153.63 12.54L153.63 12.54Q153.63 12.09 153.48 11.74L153.48 11.74L153.48 11.74Q153.32 11.38 153.06 11.13L153.06 11.13L153.06 11.13Q152.79 10.87 152.44 10.74L152.44 10.74L152.44 10.74Q152.08 10.60 151.67 10.60L151.67 10.60L147.67 10.60L147.67 17.82L145.39 17.82L145.39 9.45L145.39 9.45Q145.39 9.21 145.47 9.00L145.47 9.00L145.47 9.00Q145.56 8.80 145.72 8.64L145.72 8.64L145.72 8.64Q145.88 8.49 146.09 8.40L146.09 8.40L146.09 8.40Q146.30 8.31 146.54 8.31L146.54 8.31L151.69 8.31L151.69 8.31Q152.12 8.31 152.60 8.41L152.60 8.41L152.60 8.41Q153.08 8.51 153.55 8.72L153.55 8.72L153.55 8.72Q154.02 8.94 154.44 9.27L154.44 9.27L154.44 9.27Q154.87 9.60 155.20 10.07L155.20 10.07L155.20 10.07Q155.53 10.54 155.72 11.15L155.72 11.15L155.72 11.15Q155.92 11.77 155.92 12.54L155.92 12.54ZM180.14 14.11L180.14 14.11L180.14 14.11Q180.14 14.78 179.97 15.32L179.97 15.32L179.97 15.32Q179.80 15.86 179.51 16.28L179.51 16.28L179.51 16.28Q179.23 16.69 178.86 16.98L178.86 16.98L178.86 16.98Q178.48 17.27 178.07 17.46L178.07 17.46L178.07 17.46Q177.67 17.64 177.25 17.73L177.25 17.73L177.25 17.73Q176.83 17.82 176.46 17.82L176.46 17.82L167.65 17.82L167.65 15.53L176.46 15.53L176.46 15.53Q177.12 15.53 177.49 15.14L177.49 15.14L177.49 15.14Q177.85 14.76 177.85 14.11L177.85 14.11L177.85 14.11Q177.85 13.79 177.76 13.53L177.76 13.53L177.76 13.53Q177.66 13.26 177.48 13.07L177.48 13.07L177.48 13.07Q177.30 12.88 177.04 12.77L177.04 12.77L177.04 12.77Q176.78 12.67 176.46 12.67L176.46 12.67L171.21 12.67L171.21 12.67Q170.66 12.67 170.01 12.47L170.01 12.47L170.01 12.47Q169.37 12.27 168.82 11.83L168.82 11.83L168.82 11.83Q168.27 11.39 167.91 10.68L167.91 10.68L167.91 10.68Q167.54 9.97 167.54 8.94L167.54 8.94L167.54 8.94Q167.54 7.91 167.91 7.20L167.91 7.20L167.91 7.20Q168.27 6.50 168.82 6.05L168.82 6.05L168.82 6.05Q169.37 5.61 170.01 5.41L170.01 5.41L170.01 5.41Q170.66 5.21 171.21 5.21L171.21 5.21L178.99 5.21L178.99 7.50L171.21 7.50L171.21 7.50Q170.56 7.50 170.19 7.89L170.19 7.89L170.19 7.89Q169.83 8.29 169.83 8.94L169.83 8.94L169.83 8.94Q169.83 9.60 170.19 9.98L170.19 9.98L170.19 9.98Q170.56 10.36 171.21 10.36L171.21 10.36L176.46 10.36L176.48 10.36L176.48 10.36Q176.85 10.37 177.26 10.46L177.26 10.46L177.26 10.46Q177.68 10.56 178.09 10.75L178.09 10.75L178.09 10.75Q178.50 10.94 178.86 11.24L178.86 11.24L178.86 11.24Q179.23 11.53 179.52 11.94L179.52 11.94L179.52 11.94Q179.80 12.36 179.97 12.89L179.97 12.89L179.97 12.89Q180.14 13.43 180.14 14.11ZM194.12 11.51L194.12 14.61L194.12 14.61Q194.12 15.20 193.97 15.67L193.97 15.67L193.97 15.67Q193.82 16.14 193.57 16.49L193.57 16.49L193.57 16.49Q193.33 16.85 193.00 17.10L193.00 17.10L193.00 17.10Q192.68 17.35 192.32 17.51L192.32 17.51L192.32 17.51Q191.96 17.67 191.60 17.74L191.60 17.74L191.60 17.74Q191.24 17.82 190.91 17.82L190.91 17.82L186.79 17.82L186.79 17.82Q186.31 17.82 185.75 17.65L185.75 17.65L185.75 17.65Q185.19 17.48 184.71 17.10L184.71 17.10L184.71 17.10Q184.23 16.72 183.91 16.11L183.91 16.11L183.91 16.11Q183.59 15.50 183.59 14.61L183.59 14.61L183.59 11.51L183.59 11.51Q183.59 10.63 183.91 10.02L183.91 10.02L183.91 10.02Q184.23 9.41 184.71 9.03L184.71 9.03L184.71 9.03Q185.19 8.65 185.75 8.48L185.75 8.48L185.75 8.48Q186.31 8.31 186.79 8.31L186.79 8.31L190.91 8.31L190.91 8.31Q191.79 8.31 192.40 8.63L192.40 8.63L192.40 8.63Q193.02 8.95 193.40 9.43L193.40 9.43L193.40 9.43Q193.78 9.91 193.95 10.47L193.95 10.47L193.95 10.47Q194.12 11.03 194.12 11.51L194.12 11.51ZM191.83 14.61L191.83 11.53L191.83 11.53Q191.83 11.06 191.60 10.83L191.60 10.83L191.60 10.83Q191.36 10.60 190.91 10.60L190.91 10.60L186.81 10.60L186.81 10.60Q186.35 10.60 186.11 10.83L186.11 10.83L186.11 10.83Q185.87 11.07 185.87 11.51L185.87 11.51L185.87 14.61L185.87 14.61Q185.87 15.06 186.11 15.29L186.11 15.29L186.11 15.29Q186.35 15.53 186.81 15.53L186.81 15.53L190.91 15.53L190.91 15.53Q191.38 15.53 191.60 15.29L191.60 15.29L191.60 15.29Q191.83 15.06 191.83 14.61L191.83 14.61ZM202.24 15.53L202.24 17.82L201.22 17.82L201.22 17.82Q200.72 17.82 200.17 17.65L200.17 17.65L200.17 17.65Q199.61 17.48 199.12 17.10L199.12 17.10L199.12 17.10Q198.64 16.72 198.32 16.11L198.32 16.11L198.32 16.11Q198.01 15.50 198.01 14.61L198.01 14.61L198.01 4.30L200.29 4.30L200.29 14.61L200.29 14.61Q200.29 15.03 200.56 15.28L200.56 15.28L200.56 15.28Q200.82 15.53 201.22 15.53L201.22 15.53L202.24 15.53ZM215.95 8.31L215.95 16.66L215.95 16.66Q215.95 16.91 215.86 17.12L215.86 17.12L215.86 17.12Q215.78 17.33 215.62 17.49L215.62 17.49L215.62 17.49Q215.47 17.64 215.26 17.73L215.26 17.73L215.26 17.73Q215.05 17.82 214.82 17.82L214.82 17.82L209.65 17.82L209.65 17.82Q209.23 17.82 208.75 17.72L208.75 17.72L208.75 17.72Q208.27 17.62 207.80 17.41L207.80 17.41L207.80 17.41Q207.34 17.19 206.90 16.86L206.90 16.86L206.90 16.86Q206.47 16.53 206.14 16.06L206.14 16.06L206.14 16.06Q205.82 15.59 205.62 14.98L205.62 14.98L205.62 14.98Q205.42 14.36 205.42 13.59L205.42 13.59L205.42 8.31L207.71 8.31L207.71 13.59L207.71 13.59Q207.71 14.04 207.86 14.39L207.86 14.39L207.86 14.39Q208.01 14.75 208.28 15.00L208.28 15.00L208.28 15.00Q208.54 15.26 208.90 15.39L208.90 15.39L208.90 15.39Q209.25 15.53 209.67 15.53L209.67 15.53L213.67 15.53L213.67 8.31L215.95 8.31ZM229.30 15.53L229.30 17.82L223.10 17.82L223.10 17.82Q222.63 17.82 222.06 17.65L222.06 17.65L222.06 17.65Q221.50 17.48 221.02 17.10L221.02 17.10L221.02 17.10Q220.54 16.72 220.22 16.11L220.22 16.11L220.22 16.11Q219.90 15.50 219.90 14.61L219.90 14.61L219.90 11.51L219.90 11.51Q219.90 11.19 219.98 10.83L219.98 10.83L219.98 10.83Q220.05 10.47 220.21 10.11L220.21 10.11L220.21 10.11Q220.37 9.76 220.62 9.43L220.62 9.43L220.62 9.43Q220.87 9.11 221.23 8.86L221.23 8.86L221.23 8.86Q221.58 8.61 222.05 8.46L222.05 8.46L222.05 8.46Q222.51 8.31 223.10 8.31L223.10 8.31L229.30 8.31L229.30 10.60L223.10 10.60L223.10 10.60Q222.65 10.60 222.42 10.83L222.42 10.83L222.42 10.83Q222.19 11.06 222.19 11.53L222.19 11.53L222.19 14.61L222.19 14.61Q222.19 15.06 222.42 15.29L222.42 15.29L222.42 15.29Q222.66 15.53 223.12 15.53L223.12 15.53L229.30 15.53ZM235.51 4.30L235.51 6.36L233.22 6.36L233.22 4.30L235.51 4.30ZM235.51 8.31L235.51 17.82L233.22 17.82L233.22 8.31L235.51 8.31ZM250.03 11.51L250.03 14.61L250.03 14.61Q250.03 15.20 249.88 15.67L249.88 15.67L249.88 15.67Q249.73 16.14 249.49 16.49L249.49 16.49L249.49 16.49Q249.24 16.85 248.92 17.10L248.92 17.10L248.92 17.10Q248.59 17.35 248.23 17.51L248.23 17.51L248.23 17.51Q247.88 17.67 247.51 17.74L247.51 17.74L247.51 17.74Q247.15 17.82 246.82 17.82L246.82 17.82L242.70 17.82L242.70 17.82Q242.23 17.82 241.67 17.65L241.67 17.65L241.67 17.65Q241.10 17.48 240.62 17.10L240.62 17.10L240.62 17.10Q240.14 16.72 239.82 16.11L239.82 16.11L239.82 16.11Q239.50 15.50 239.50 14.61L239.50 14.61L239.50 11.51L239.50 11.51Q239.50 10.63 239.82 10.02L239.82 10.02L239.82 10.02Q240.14 9.41 240.62 9.03L240.62 9.03L240.62 9.03Q241.10 8.65 241.67 8.48L241.67 8.48L241.67 8.48Q242.23 8.31 242.70 8.31L242.70 8.31L246.82 8.31L246.82 8.31Q247.70 8.31 248.32 8.63L248.32 8.63L248.32 8.63Q248.93 8.95 249.31 9.43L249.31 9.43L249.31 9.43Q249.69 9.91 249.86 10.47L249.86 10.47L249.86 10.47Q250.03 11.03 250.03 11.51L250.03 11.51ZM247.75 14.61L247.75 11.53L247.75 11.53Q247.75 11.06 247.51 10.83L247.51 10.83L247.51 10.83Q247.27 10.60 246.82 10.60L246.82 10.60L242.72 10.60L242.72 10.60Q242.26 10.60 242.03 10.83L242.03 10.83L242.03 10.83Q241.79 11.07 241.79 11.51L241.79 11.51L241.79 14.61L241.79 14.61Q241.79 15.06 242.03 15.29L242.03 15.29L242.03 15.29Q242.26 15.53 242.72 15.53L242.72 15.53L246.82 15.53L246.82 15.53Q247.29 15.53 247.52 15.29L247.52 15.29L247.52 15.29Q247.75 15.06 247.75 14.61L247.75 14.61ZM264.50 12.54L264.50 17.82L262.22 17.82L262.22 12.54L262.22 12.54Q262.22 12.09 262.06 11.74L262.06 11.74L262.06 11.74Q261.91 11.38 261.65 11.13L261.65 11.13L261.65 11.13Q261.38 10.87 261.03 10.74L261.03 10.74L261.03 10.74Q260.67 10.60 260.26 10.60L260.26 10.60L256.26 10.60L256.26 17.82L253.97 17.82L253.97 9.45L253.97 9.45Q253.97 9.21 254.06 9.00L254.06 9.00L254.06 9.00Q254.15 8.80 254.31 8.64L254.31 8.64L254.31 8.64Q254.47 8.49 254.68 8.40L254.68 8.40L254.68 8.40Q254.89 8.31 255.13 8.31L255.13 8.31L260.28 8.31L260.28 8.31Q260.71 8.31 261.19 8.41L261.19 8.41L261.19 8.41Q261.67 8.51 262.14 8.72L262.14 8.72L262.14 8.72Q262.61 8.94 263.03 9.27L263.03 9.27L263.03 9.27Q263.46 9.60 263.79 10.07L263.79 10.07L263.79 10.07Q264.12 10.54 264.31 11.15L264.31 11.15L264.31 11.15Q264.50 11.77 264.50 12.54L264.50 12.54ZM278.73 11.46L278.73 11.46L278.73 11.46Q278.73 11.94 278.56 12.48L278.56 12.48L278.56 12.48Q278.40 13.03 278.02 13.50L278.02 13.50L278.02 13.50Q277.65 13.97 277.05 14.29L277.05 14.29L277.05 14.29Q276.44 14.61 275.58 14.61L275.58 14.61L271.46 14.61L271.46 12.44L275.58 12.44L275.58 12.44Q276.05 12.44 276.30 12.15L276.30 12.15L276.30 12.15Q276.56 11.87 276.56 11.44L276.56 11.44L276.56 11.44Q276.56 11.00 276.27 10.74L276.27 10.74L276.27 10.74Q275.99 10.49 275.58 10.49L275.58 10.49L271.46 10.49L271.46 10.49Q271.00 10.49 270.74 10.77L270.74 10.77L270.74 10.77Q270.49 11.06 270.49 11.48L270.49 11.48L270.49 14.67L270.49 14.67Q270.49 15.13 270.77 15.38L270.77 15.38L270.77 15.38Q271.06 15.64 271.48 15.64L271.48 15.64L275.58 15.64L275.58 17.82L271.46 17.82L271.46 17.82Q270.99 17.82 270.44 17.65L270.44 17.65L270.44 17.65Q269.89 17.48 269.42 17.11L269.42 17.11L269.42 17.11Q268.95 16.73 268.63 16.13L268.63 16.13L268.63 16.13Q268.31 15.53 268.31 14.67L268.31 14.67L268.31 11.46L268.31 11.46Q268.31 10.99 268.48 10.44L268.48 10.44L268.48 10.44Q268.65 9.89 269.02 9.42L269.02 9.42L269.02 9.42Q269.40 8.95 270.00 8.63L270.00 8.63L270.00 8.63Q270.60 8.31 271.46 8.31L271.46 8.31L275.58 8.31L275.58 8.31Q276.06 8.31 276.61 8.48L276.61 8.48L276.61 8.48Q277.16 8.65 277.63 9.02L277.63 9.02L277.63 9.02Q278.10 9.40 278.41 10.00L278.41 10.00L278.41 10.00Q278.73 10.60 278.73 11.46ZM291.45 14.61L291.45 14.61L291.45 14.61Q291.45 15.20 291.30 15.67L291.30 15.67L291.30 15.67Q291.15 16.14 290.91 16.49L290.91 16.49L290.91 16.49Q290.66 16.85 290.34 17.10L290.34 17.10L290.34 17.10Q290.01 17.35 289.65 17.51L289.65 17.51L289.65 17.51Q289.30 17.67 288.93 17.74L288.93 17.74L288.93 17.74Q288.57 17.82 288.24 17.82L288.24 17.82L282.06 17.82L282.06 15.53L288.23 15.53L288.23 15.53Q288.69 15.53 288.93 15.29L288.93 15.29L288.93 15.29Q289.17 15.06 289.17 14.61L289.17 14.61L289.17 14.61Q289.12 13.69 288.24 13.69L288.24 13.69L284.70 13.69L284.70 13.69Q283.95 13.69 283.42 13.43L283.42 13.43L283.42 13.43Q282.89 13.17 282.56 12.77L282.56 12.77L282.56 12.77Q282.23 12.38 282.09 11.92L282.09 11.92L282.09 11.92Q281.94 11.46 281.94 11.07L281.94 11.07L281.94 11.07Q281.94 10.30 282.21 9.78L282.21 9.78L282.21 9.78Q282.49 9.25 282.90 8.93L282.90 8.93L282.90 8.93Q283.31 8.60 283.80 8.46L283.80 8.46L283.80 8.46Q284.28 8.31 284.70 8.31L284.70 8.31L290.32 8.31L290.32 10.60L284.72 10.60L284.72 10.60Q284.54 10.60 284.44 10.64L284.44 10.64L284.44 10.64Q284.34 10.68 284.29 10.74L284.29 10.74L284.29 10.74Q284.25 10.81 284.24 10.89L284.24 10.89L284.24 10.89Q284.23 10.96 284.23 11.03L284.23 11.03L284.23 11.03Q284.24 11.17 284.28 11.25L284.28 11.25L284.28 11.25Q284.32 11.33 284.39 11.36L284.39 11.36L284.39 11.36Q284.46 11.40 284.54 11.40L284.54 11.40L284.54 11.40Q284.62 11.41 284.70 11.41L284.70 11.41L288.24 11.41L288.24 11.41Q289.12 11.41 289.74 11.72L289.74 11.72L289.74 11.72Q290.35 12.04 290.73 12.52L290.73 12.52L290.73 12.52Q291.11 13.00 291.28 13.56L291.28 13.56L291.28 13.56Q291.45 14.12 291.45 14.61ZM305.46 5.21L305.46 17.82L303.18 17.82L303.18 5.21L305.46 5.21ZM320.41 12.54L320.41 17.82L318.12 17.82L318.12 12.54L318.12 12.54Q318.12 12.09 317.97 11.74L317.97 11.74L317.97 11.74Q317.82 11.38 317.55 11.13L317.55 11.13L317.55 11.13Q317.29 10.87 316.93 10.74L316.93 10.74L316.93 10.74Q316.58 10.60 316.16 10.60L316.16 10.60L312.17 10.60L312.17 17.82L309.88 17.82L309.88 9.45L309.88 9.45Q309.88 9.21 309.97 9.00L309.97 9.00L309.97 9.00Q310.06 8.80 310.21 8.64L310.21 8.64L310.21 8.64Q310.37 8.49 310.58 8.40L310.58 8.40L310.58 8.40Q310.79 8.31 311.03 8.31L311.03 8.31L316.18 8.31L316.18 8.31Q316.61 8.31 317.09 8.41L317.09 8.41L317.09 8.41Q317.57 8.51 318.04 8.72L318.04 8.72L318.04 8.72Q318.51 8.94 318.94 9.27L318.94 9.27L318.94 9.27Q319.36 9.60 319.69 10.07L319.69 10.07L319.69 10.07Q320.02 10.54 320.22 11.15L320.22 11.15L320.22 11.15Q320.41 11.77 320.41 12.54L320.41 12.54ZM332.82 8.31L332.82 10.60L327.66 10.60L327.66 8.31L332.82 8.31ZM332.82 4.19L332.82 6.48L327.67 6.48L327.67 6.48Q327.21 6.48 326.97 6.71L326.97 6.71L326.97 6.71Q326.73 6.94 326.73 7.39L326.73 7.39L326.73 17.82L324.45 17.82L324.45 7.39L324.45 7.39Q324.45 6.80 324.60 6.34L324.60 6.34L324.60 6.34Q324.75 5.87 325.00 5.52L325.00 5.52L325.00 5.52Q325.25 5.16 325.57 4.91L325.57 4.91L325.57 4.91Q325.90 4.66 326.25 4.50L326.25 4.50L326.25 4.50Q326.61 4.34 326.97 4.27L326.97 4.27L326.97 4.27Q327.33 4.19 327.66 4.19L327.66 4.19L332.82 4.19ZM346.62 11.51L346.62 14.61L346.62 14.61Q346.62 15.20 346.47 15.67L346.47 15.67L346.47 15.67Q346.32 16.14 346.07 16.49L346.07 16.49L346.07 16.49Q345.83 16.85 345.50 17.10L345.50 17.10L345.50 17.10Q345.18 17.35 344.82 17.51L344.82 17.51L344.82 17.51Q344.47 17.67 344.10 17.74L344.10 17.74L344.10 17.74Q343.74 17.82 343.41 17.82L343.41 17.82L339.29 17.82L339.29 17.82Q338.81 17.82 338.25 17.65L338.25 17.65L338.25 17.65Q337.69 17.48 337.21 17.10L337.21 17.10L337.21 17.10Q336.73 16.72 336.41 16.11L336.41 16.11L336.41 16.11Q336.09 15.50 336.09 14.61L336.09 14.61L336.09 11.51L336.09 11.51Q336.09 10.63 336.41 10.02L336.41 10.02L336.41 10.02Q336.73 9.41 337.21 9.03L337.21 9.03L337.21 9.03Q337.69 8.65 338.25 8.48L338.25 8.48L338.25 8.48Q338.81 8.31 339.29 8.31L339.29 8.31L343.41 8.31L343.41 8.31Q344.29 8.31 344.91 8.63L344.91 8.63L344.91 8.63Q345.52 8.95 345.90 9.43L345.90 9.43L345.90 9.43Q346.28 9.91 346.45 10.47L346.45 10.47L346.45 10.47Q346.62 11.03 346.62 11.51L346.62 11.51ZM344.33 14.61L344.33 11.53L344.33 11.53Q344.33 11.06 344.10 10.83L344.10 10.83L344.10 10.83Q343.86 10.60 343.41 10.60L343.41 10.60L339.31 10.60L339.31 10.60Q338.85 10.60 338.61 10.83L338.61 10.83L338.61 10.83Q338.38 11.07 338.38 11.51L338.38 11.51L338.38 14.61L338.38 14.61Q338.38 15.06 338.61 15.29L338.61 15.29L338.61 15.29Q338.85 15.53 339.31 15.53L339.31 15.53L343.41 15.53L343.41 15.53Q343.88 15.53 344.11 15.29L344.11 15.29L344.11 15.29Q344.33 15.06 344.33 14.61L344.33 14.61ZM358.88 8.31L358.88 10.60L353.73 10.60L353.73 10.60Q353.27 10.60 353.03 10.83L353.03 10.83L353.03 10.83Q352.79 11.07 352.79 11.51L352.79 11.51L352.79 17.82L350.51 17.82L350.51 11.51L350.51 11.51Q350.51 10.92 350.66 10.46L350.66 10.46L350.66 10.46Q350.81 9.99 351.06 9.64L351.06 9.64L351.06 9.64Q351.31 9.28 351.63 9.03L351.63 9.03L351.63 9.03Q351.96 8.78 352.31 8.62L352.31 8.62L352.31 8.62Q352.67 8.46 353.04 8.39L353.04 8.39L353.04 8.39Q353.40 8.31 353.72 8.31L353.72 8.31L358.88 8.31ZM370.86 11.51L370.86 17.82L368.58 17.82L368.58 11.51L368.58 11.51Q368.58 11.07 368.34 10.83L368.34 10.83L368.34 10.83Q368.10 10.60 367.63 10.60L367.63 10.60L364.66 10.60L364.66 17.82L362.38 17.82L362.38 9.45L362.38 9.45Q362.38 9.21 362.47 9.00L362.47 9.00L362.47 9.00Q362.55 8.80 362.71 8.64L362.71 8.64L362.71 8.64Q362.87 8.49 363.08 8.40L363.08 8.40L363.08 8.40Q363.29 8.31 363.53 8.31L363.53 8.31L367.65 8.31L367.65 8.31Q368.13 8.31 368.67 8.48L368.67 8.48L368.67 8.48Q369.22 8.65 369.71 9.02L369.71 9.02L369.71 8.31L372.80 8.31L372.80 8.31Q373.13 8.31 373.49 8.39L373.49 8.39L373.49 8.39Q373.85 8.46 374.20 8.62L374.20 8.62L374.20 8.62Q374.56 8.78 374.89 9.03L374.89 9.03L374.89 9.03Q375.21 9.28 375.46 9.64L375.46 9.64L375.46 9.64Q375.70 9.99 375.85 10.46L375.85 10.46L375.85 10.46Q376.00 10.92 376.00 11.51L376.00 11.51L376.00 17.82L373.72 17.82L373.72 11.51L373.72 11.51Q373.72 11.07 373.49 10.83L373.49 10.83L373.49 10.83Q373.27 10.60 372.80 10.60L372.80 10.60L370.75 10.60L370.75 10.60Q370.86 11.02 370.86 11.51L370.86 11.51ZM389.91 11.46L389.91 14.67L389.91 14.67Q389.91 15.14 389.74 15.69L389.74 15.69L389.74 15.69Q389.58 16.24 389.20 16.71L389.20 16.71L389.20 16.71Q388.83 17.18 388.23 17.50L388.23 17.50L388.23 17.50Q387.63 17.82 386.76 17.82L386.76 17.82L382.64 17.82L382.64 17.82Q382.17 17.82 381.62 17.65L381.62 17.65L381.62 17.65Q381.07 17.48 380.60 17.11L380.60 17.11L380.60 17.11Q380.13 16.73 379.81 16.13L379.81 16.13L379.81 16.13Q379.50 15.53 379.50 14.67L379.50 14.67L379.50 14.67Q379.50 14.19 379.66 13.64L379.66 13.64L379.66 13.64Q379.83 13.09 380.20 12.62L380.20 12.62L380.20 12.62Q380.58 12.15 381.18 11.83L381.18 11.83L381.18 11.83Q381.78 11.51 382.64 11.51L382.64 11.51L386.76 11.51L386.76 13.69L382.64 13.69L382.64 13.69Q382.18 13.69 381.92 13.98L381.92 13.98L381.92 13.98Q381.67 14.26 381.67 14.69L381.67 14.69L381.67 14.69Q381.67 15.13 381.96 15.39L381.96 15.39L381.96 15.39Q382.26 15.64 382.66 15.64L382.66 15.64L386.76 15.64L386.76 15.64Q387.23 15.64 387.49 15.35L387.49 15.35L387.49 15.35Q387.74 15.07 387.74 14.65L387.74 14.65L387.74 11.46L387.74 11.46Q387.74 11.01 387.46 10.75L387.46 10.75L387.46 10.75Q387.19 10.49 386.76 10.49L386.76 10.49L381.75 10.49L381.75 8.31L386.76 8.31L386.76 8.31Q387.24 8.31 387.79 8.48L387.79 8.48L387.79 8.48Q388.34 8.65 388.81 9.02L388.81 9.02L388.81 9.02Q389.28 9.40 389.59 10.00L389.59 10.00L389.59 10.00Q389.91 10.60 389.91 11.46L389.91 11.46ZM402.47 8.31L402.47 10.60L398.48 10.60L398.48 17.82L396.17 17.82L396.17 10.60L393.19 10.60L393.19 8.31L396.17 8.31L396.17 5.21L398.48 5.21L398.48 8.31L402.47 8.31ZM408.29 4.30L408.29 6.36L406.00 6.36L406.00 4.30L408.29 4.30ZM408.29 8.31L408.29 17.82L406.00 17.82L406.00 8.31L408.29 8.31ZM421.68 15.53L421.68 17.82L415.48 17.82L415.48 17.82Q415.01 17.82 414.45 17.65L414.45 17.65L414.45 17.65Q413.88 17.48 413.41 17.10L413.41 17.10L413.41 17.10Q412.93 16.72 412.61 16.11L412.61 16.11L412.61 16.11Q412.29 15.50 412.29 14.61L412.29 14.61L412.29 11.51L412.29 11.51Q412.29 11.19 412.36 10.83L412.36 10.83L412.36 10.83Q412.43 10.47 412.59 10.11L412.59 10.11L412.59 10.11Q412.75 9.76 413.00 9.43L413.00 9.43L413.00 9.43Q413.25 9.11 413.61 8.86L413.61 8.86L413.61 8.86Q413.96 8.61 414.43 8.46L414.43 8.46L414.43 8.46Q414.90 8.31 415.48 8.31L415.48 8.31L421.68 8.31L421.68 10.60L415.48 10.60L415.48 10.60Q415.04 10.60 414.80 10.83L414.80 10.83L414.80 10.83Q414.57 11.06 414.57 11.53L414.57 11.53L414.57 14.61L414.57 14.61Q414.57 15.06 414.81 15.29L414.81 15.29L414.81 15.29Q415.04 15.53 415.50 15.53L415.50 15.53L421.68 15.53ZM435.32 11.46L435.32 14.67L435.32 14.67Q435.32 15.14 435.15 15.69L435.15 15.69L435.15 15.69Q434.98 16.24 434.61 16.71L434.61 16.71L434.61 16.71Q434.24 17.18 433.63 17.50L433.63 17.50L433.63 17.50Q433.03 17.82 432.17 17.82L432.17 17.82L428.05 17.82L428.05 17.82Q427.57 17.82 427.02 17.65L427.02 17.65L427.02 17.65Q426.48 17.48 426.01 17.11L426.01 17.11L426.01 17.11Q425.54 16.73 425.22 16.13L425.22 16.13L425.22 16.13Q424.90 15.53 424.90 14.67L424.90 14.67L424.90 14.67Q424.90 14.19 425.07 13.64L425.07 13.64L425.07 13.64Q425.24 13.09 425.61 12.62L425.61 12.62L425.61 12.62Q425.98 12.15 426.59 11.83L426.59 11.83L426.59 11.83Q427.19 11.51 428.05 11.51L428.05 11.51L432.17 11.51L432.17 13.69L428.05 13.69L428.05 13.69Q427.58 13.69 427.33 13.98L427.33 13.98L427.33 13.98Q427.07 14.26 427.07 14.69L427.07 14.69L427.07 14.69Q427.07 15.13 427.37 15.39L427.37 15.39L427.37 15.39Q427.66 15.64 428.07 15.64L428.07 15.64L432.17 15.64L432.17 15.64Q432.64 15.64 432.89 15.35L432.89 15.35L432.89 15.35Q433.15 15.07 433.15 14.65L433.15 14.65L433.15 11.46L433.15 11.46Q433.15 11.01 432.87 10.75L432.87 10.75L432.87 10.75Q432.59 10.49 432.17 10.49L432.17 10.49L427.15 10.49L427.15 8.31L432.17 8.31L432.17 8.31Q432.65 8.31 433.19 8.48L433.19 8.48L433.19 8.48Q433.74 8.65 434.21 9.02L434.21 9.02L434.21 9.02Q434.68 9.40 435.00 10.00L435.00 10.00L435.00 10.00Q435.32 10.60 435.32 11.46L435.32 11.46ZM448.45 14.61L448.45 14.61L448.45 14.61Q448.45 15.20 448.30 15.67L448.30 15.67L448.30 15.67Q448.15 16.14 447.91 16.49L447.91 16.49L447.91 16.49Q447.66 16.85 447.34 17.10L447.34 17.10L447.34 17.10Q447.01 17.35 446.66 17.51L446.66 17.51L446.66 17.51Q446.30 17.67 445.94 17.74L445.94 17.74L445.94 17.74Q445.57 17.82 445.25 17.82L445.25 17.82L439.06 17.82L439.06 15.53L445.23 15.53L445.23 15.53Q445.69 15.53 445.93 15.29L445.93 15.29L445.93 15.29Q446.17 15.06 446.17 14.61L446.17 14.61L446.17 14.61Q446.12 13.69 445.25 13.69L445.25 13.69L441.70 13.69L441.70 13.69Q440.95 13.69 440.42 13.43L440.42 13.43L440.42 13.43Q439.89 13.17 439.56 12.77L439.56 12.77L439.56 12.77Q439.23 12.38 439.09 11.92L439.09 11.92L439.09 11.92Q438.94 11.46 438.94 11.07L438.94 11.07L438.94 11.07Q438.94 10.30 439.22 9.78L439.22 9.78L439.22 9.78Q439.49 9.25 439.90 8.93L439.90 8.93L439.90 8.93Q440.31 8.60 440.80 8.46L440.80 8.46L440.80 8.46Q441.28 8.31 441.70 8.31L441.70 8.31L447.32 8.31L447.32 10.60L441.72 10.60L441.72 10.60Q441.54 10.60 441.44 10.64L441.44 10.64L441.44 10.64Q441.34 10.68 441.29 10.74L441.29 10.74L441.29 10.74Q441.25 10.81 441.24 10.89L441.24 10.89L441.24 10.89Q441.23 10.96 441.23 11.03L441.23 11.03L441.23 11.03Q441.24 11.17 441.28 11.25L441.28 11.25L441.28 11.25Q441.33 11.33 441.39 11.36L441.39 11.36L441.39 11.36Q441.46 11.40 441.54 11.40L441.54 11.40L441.54 11.40Q441.62 11.41 441.70 11.41L441.70 11.41L445.25 11.41L445.25 11.41Q446.12 11.41 446.74 11.72L446.74 11.72L446.74 11.72Q447.35 12.04 447.73 12.52L447.73 12.52L447.73 12.52Q448.11 13.00 448.28 13.56L448.28 13.56L448.28 13.56Q448.45 14.12 448.45 14.61Z" transform="rotate(0 224.7700079679489 11.00499963760376)"></path><defs id="SvgjsDefs1012"></defs></svg></g></svg>